<svg width="48" height="54" viewBox="0 0 48 54" fill="none" xmlns="http://www.w3.org/2000/svg">
<path fill-rule="evenodd" clip-rule="evenodd" d="M37.3333 5.66659H45.3333C46.8061 5.66659 48 6.86049 48 8.33325V18.9999C48 24.891 43.2244 29.6666 37.3333 29.6666H36.96C35.7472 34.3637 31.5178 37.6508 26.6667 37.6666V48.3333H33.3333C34.0697 48.3333 34.6667 48.9302 34.6667 49.6666V52.3333C34.6667 53.0696 34.0697 53.6666 33.3333 53.6666H14.6667C13.9303 53.6666 13.3333 53.0696 13.3333 52.3333V49.6666C13.3333 48.9302 13.9303 48.3333 14.6667 48.3333H21.3333V37.6666C16.4822 37.6508 12.2528 34.3637 11.04 29.6666H10.6667C4.77563 29.6666 0 24.891 0 18.9999V8.33325C0 6.86049 1.19391 5.66659 2.66667 5.66659H10.6667V2.99992C10.6667 1.52716 11.8606 0.333252 13.3333 0.333252H34.6667C36.1394 0.333252 37.3333 1.52716 37.3333 2.99992V5.66659ZM5.33333 10.9999V18.9999C5.33333 21.9454 7.72115 24.3333 10.6667 24.3333V10.9999H5.33333ZM32 26.9999C32 29.9454 29.6122 32.3333 26.6667 32.3333H21.3333C18.3878 32.3333 16 29.9454 16 26.9999V5.66659H32V26.9999ZM37.3333 24.3333C40.2789 24.3333 42.6667 21.9454 42.6667 18.9999V10.9999H37.3333V24.3333Z" fill="#FC9374"/>
</svg>
